{
	"asset":{
		"generator":"Khronos glTF Blender I/O v4.3.47",
		"version":"2.0"
	},
	"scene":0,
	"scenes":[
		{
			"name":"Scene",
			"nodes":[
				0,
				1,
				2,
				3,
				4,
				5,
				6,
				7,
				8,
				9,
				10
			]
		}
	],
	"nodes":[
		{
			"mesh":0,
			"name":"Cylinder",
			"rotation":[
				0,
				0,
				-1,
				0
			],
			"scale":[
				-0.17001909017562866,
				-7,
				-0.20000000298023224
			],
			"translation":[
				0,
				7,
				0
			]
		},
		{
			"mesh":1,
			"name":"Cylinder.001",
			"rotation":[
				0,
				0,
				-1,
				0
			],
			"scale":[
				-0.17001909017562866,
				-7,
				-0.20000000298023224
			],
			"translation":[
				0,
				7,
				-2
			]
		},
		{
			"mesh":2,
			"name":"Cylinder.002",
			"rotation":[
				0,
				0,
				-1,
				0
			],
			"scale":[
				-0.17001909017562866,
				-7,
				-0.20000000298023224
			],
			"translation":[
				0,
				7,
				-8
			]
		},
		{
			"mesh":3,
			"name":"Cylinder.004",
			"rotation":[
				0,
				0,
				-1,
				0
			],
			"scale":[
				-0.17001909017562866,
				-7,
				-0.20000000298023224
			],
			"translation":[
				0,
				7,
				-4
			]
		},
		{
			"mesh":4,
			"name":"Cylinder.005",
			"rotation":[
				0,
				0,
				-1,
				0
			],
			"scale":[
				-0.17001909017562866,
				-7,
				-0.20000000298023224
			],
			"translation":[
				0,
				7,
				-6
			]
		},
		{
			"mesh":5,
			"name":"Cylinder.006",
			"rotation":[
				0,
				0,
				-1,
				0
			],
			"scale":[
				-0.17001909017562866,
				-7,
				-0.20000000298023224
			],
			"translation":[
				0,
				7,
				2
			]
		},
		{
			"mesh":6,
			"name":"Cylinder.008",
			"rotation":[
				0,
				0,
				-1,
				0
			],
			"scale":[
				-0.17001909017562866,
				-7,
				-0.20000000298023224
			],
			"translation":[
				0,
				7,
				4
			]
		},
		{
			"mesh":7,
			"name":"Cube",
			"scale":[
				0.3557049036026001,
				0.15000000596046448,
				7.02427864074707
			],
			"translation":[
				0,
				10.5,
				-2
			]
		},
		{
			"mesh":8,
			"name":"Cube.001",
			"scale":[
				0.3557049036026001,
				0.15000000596046448,
				7.02427864074707
			],
			"translation":[
				0,
				3.5,
				-2
			]
		},
		{
			"mesh":9,
			"name":"Cube.002",
			"scale":[
				0.3557049036026001,
				0.15000000596046448,
				7.02427864074707
			],
			"translation":[
				0,
				7,
				-2
			]
		},
		{
			"mesh":10,
			"name":"Cube.003",
			"scale":[
				0.3557049036026001,
				0.15000000596046448,
				7.02427864074707
			],
			"translation":[
				0,
				13.975906372070312,
				-2
			]
		}
	],
	"meshes":[
		{
			"name":"Cylinder",
			"primitives":[
				{
					"attributes":{
						"POSITION":0,
						"NORMAL":1,
						"TEXCOORD_0":2
					},
					"indices":3
				}
			]
		},
		{
			"name":"Cylinder.001",
			"primitives":[
				{
					"attributes":{
						"POSITION":4,
						"NORMAL":5,
						"TEXCOORD_0":6
					},
					"indices":3
				}
			]
		},
		{
			"name":"Cylinder.002",
			"primitives":[
				{
					"attributes":{
						"POSITION":7,
						"NORMAL":8,
						"TEXCOORD_0":9
					},
					"indices":3
				}
			]
		},
		{
			"name":"Cylinder.004",
			"primitives":[
				{
					"attributes":{
						"POSITION":10,
						"NORMAL":11,
						"TEXCOORD_0":12
					},
					"indices":3
				}
			]
		},
		{
			"name":"Cylinder.005",
			"primitives":[
				{
					"attributes":{
						"POSITION":13,
						"NORMAL":14,
						"TEXCOORD_0":15
					},
					"indices":3
				}
			]
		},
		{
			"name":"Cylinder.006",
			"primitives":[
				{
					"attributes":{
						"POSITION":16,
						"NORMAL":17,
						"TEXCOORD_0":18
					},
					"indices":3
				}
			]
		},
		{
			"name":"Cylinder.008",
			"primitives":[
				{
					"attributes":{
						"POSITION":19,
						"NORMAL":20,
						"TEXCOORD_0":21
					},
					"indices":3
				}
			]
		},
		{
			"name":"Cube.001",
			"primitives":[
				{
					"attributes":{
						"POSITION":22,
						"NORMAL":23,
						"TEXCOORD_0":24
					},
					"indices":25
				}
			]
		},
		{
			"name":"Cube.002",
			"primitives":[
				{
					"attributes":{
						"POSITION":26,
						"NORMAL":27,
						"TEXCOORD_0":28
					},
					"indices":25
				}
			]
		},
		{
			"name":"Cube.003",
			"primitives":[
				{
					"attributes":{
						"POSITION":29,
						"NORMAL":30,
						"TEXCOORD_0":31
					},
					"indices":25
				}
			]
		},
		{
			"name":"Cube.004",
			"primitives":[
				{
					"attributes":{
						"POSITION":32,
						"NORMAL":33,
						"TEXCOORD_0":34
					},
					"indices":25
				}
			]
		}
	],
	"accessors":[
		{
			"bufferView":0,
			"componentType":5126,
			"count":192,
			"max":[
				1,
				1,
				1
			],
			"min":[
				-1,
				-1,
				-1
			],
			"type":"VEC3"
		},
		{
			"bufferView":1,
			"componentType":5126,
			"count":192,
			"type":"VEC3"
		},
		{
			"bufferView":2,
			"componentType":5126,
			"count":192,
			"type":"VEC2"
		},
		{
			"bufferView":3,
			"componentType":5123,
			"count":372,
			"type":"SCALAR"
		},
		{
			"bufferView":4,
			"componentType":5126,
			"count":192,
			"max":[
				1,
				1,
				1
			],
			"min":[
				-1,
				-1,
				-1
			],
			"type":"VEC3"
		},
		{
			"bufferView":5,
			"componentType":5126,
			"count":192,
			"type":"VEC3"
		},
		{
			"bufferView":6,
			"componentType":5126,
			"count":192,
			"type":"VEC2"
		},
		{
			"bufferView":7,
			"componentType":5126,
			"count":192,
			"max":[
				1,
				1,
				1
			],
			"min":[
				-1,
				-1,
				-1
			],
			"type":"VEC3"
		},
		{
			"bufferView":8,
			"componentType":5126,
			"count":192,
			"type":"VEC3"
		},
		{
			"bufferView":9,
			"componentType":5126,
			"count":192,
			"type":"VEC2"
		},
		{
			"bufferView":10,
			"componentType":5126,
			"count":192,
			"max":[
				1,
				1,
				1
			],
			"min":[
				-1,
				-1,
				-1
			],
			"type":"VEC3"
		},
		{
			"bufferView":11,
			"componentType":5126,
			"count":192,
			"type":"VEC3"
		},
		{
			"bufferView":12,
			"componentType":5126,
			"count":192,
			"type":"VEC2"
		},
		{
			"bufferView":13,
			"componentType":5126,
			"count":192,
			"max":[
				1,
				1,
				1
			],
			"min":[
				-1,
				-1,
				-1
			],
			"type":"VEC3"
		},
		{
			"bufferView":14,
			"componentType":5126,
			"count":192,
			"type":"VEC3"
		},
		{
			"bufferView":15,
			"componentType":5126,
			"count":192,
			"type":"VEC2"
		},
		{
			"bufferView":16,
			"componentType":5126,
			"count":192,
			"max":[
				1,
				1,
				1
			],
			"min":[
				-1,
				-1,
				-1
			],
			"type":"VEC3"
		},
		{
			"bufferView":17,
			"componentType":5126,
			"count":192,
			"type":"VEC3"
		},
		{
			"bufferView":18,
			"componentType":5126,
			"count":192,
			"type":"VEC2"
		},
		{
			"bufferView":19,
			"componentType":5126,
			"count":192,
			"max":[
				1,
				1,
				1
			],
			"min":[
				-1,
				-1,
				-1
			],
			"type":"VEC3"
		},
		{
			"bufferView":20,
			"componentType":5126,
			"count":192,
			"type":"VEC3"
		},
		{
			"bufferView":21,
			"componentType":5126,
			"count":192,
			"type":"VEC2"
		},
		{
			"bufferView":22,
			"componentType":5126,
			"count":24,
			"max":[
				1,
				1,
				1
			],
			"min":[
				-1,
				-1,
				-1
			],
			"type":"VEC3"
		},
		{
			"bufferView":23,
			"componentType":5126,
			"count":24,
			"type":"VEC3"
		},
		{
			"bufferView":24,
			"componentType":5126,
			"count":24,
			"type":"VEC2"
		},
		{
			"bufferView":25,
			"componentType":5123,
			"count":36,
			"type":"SCALAR"
		},
		{
			"bufferView":26,
			"componentType":5126,
			"count":24,
			"max":[
				1,
				1,
				1
			],
			"min":[
				-1,
				-1,
				-1
			],
			"type":"VEC3"
		},
		{
			"bufferView":27,
			"componentType":5126,
			"count":24,
			"type":"VEC3"
		},
		{
			"bufferView":28,
			"componentType":5126,
			"count":24,
			"type":"VEC2"
		},
		{
			"bufferView":29,
			"componentType":5126,
			"count":24,
			"max":[
				1,
				1,
				1
			],
			"min":[
				-1,
				-1,
				-1
			],
			"type":"VEC3"
		},
		{
			"bufferView":30,
			"componentType":5126,
			"count":24,
			"type":"VEC3"
		},
		{
			"bufferView":31,
			"componentType":5126,
			"count":24,
			"type":"VEC2"
		},
		{
			"bufferView":32,
			"componentType":5126,
			"count":24,
			"max":[
				1,
				1,
				1
			],
			"min":[
				-1,
				-1,
				-1
			],
			"type":"VEC3"
		},
		{
			"bufferView":33,
			"componentType":5126,
			"count":24,
			"type":"VEC3"
		},
		{
			"bufferView":34,
			"componentType":5126,
			"count":24,
			"type":"VEC2"
		}
	],
	"bufferViews":[
		{
			"buffer":0,
			"byteLength":2304,
			"byteOffset":0,
			"target":34962
		},
		{
			"buffer":0,
			"byteLength":2304,
			"byteOffset":2304,
			"target":34962
		},
		{
			"buffer":0,
			"byteLength":1536,
			"byteOffset":4608,
			"target":34962
		},
		{
			"buffer":0,
			"byteLength":744,
			"byteOffset":6144,
			"target":34963
		},
		{
			"buffer":0,
			"byteLength":2304,
			"byteOffset":6888,
			"target":34962
		},
		{
			"buffer":0,
			"byteLength":2304,
			"byteOffset":9192,
			"target":34962
		},
		{
			"buffer":0,
			"byteLength":1536,
			"byteOffset":11496,
			"target":34962
		},
		{
			"buffer":0,
			"byteLength":2304,
			"byteOffset":13032,
			"target":34962
		},
		{
			"buffer":0,
			"byteLength":2304,
			"byteOffset":15336,
			"target":34962
		},
		{
			"buffer":0,
			"byteLength":1536,
			"byteOffset":17640,
			"target":34962
		},
		{
			"buffer":0,
			"byteLength":2304,
			"byteOffset":19176,
			"target":34962
		},
		{
			"buffer":0,
			"byteLength":2304,
			"byteOffset":21480,
			"target":34962
		},
		{
			"buffer":0,
			"byteLength":1536,
			"byteOffset":23784,
			"target":34962
		},
		{
			"buffer":0,
			"byteLength":2304,
			"byteOffset":25320,
			"target":34962
		},
		{
			"buffer":0,
			"byteLength":2304,
			"byteOffset":27624,
			"target":34962
		},
		{
			"buffer":0,
			"byteLength":1536,
			"byteOffset":29928,
			"target":34962
		},
		{
			"buffer":0,
			"byteLength":2304,
			"byteOffset":31464,
			"target":34962
		},
		{
			"buffer":0,
			"byteLength":2304,
			"byteOffset":33768,
			"target":34962
		},
		{
			"buffer":0,
			"byteLength":1536,
			"byteOffset":36072,
			"target":34962
		},
		{
			"buffer":0,
			"byteLength":2304,
			"byteOffset":37608,
			"target":34962
		},
		{
			"buffer":0,
			"byteLength":2304,
			"byteOffset":39912,
			"target":34962
		},
		{
			"buffer":0,
			"byteLength":1536,
			"byteOffset":42216,
			"target":34962
		},
		{
			"buffer":0,
			"byteLength":288,
			"byteOffset":43752,
			"target":34962
		},
		{
			"buffer":0,
			"byteLength":288,
			"byteOffset":44040,
			"target":34962
		},
		{
			"buffer":0,
			"byteLength":192,
			"byteOffset":44328,
			"target":34962
		},
		{
			"buffer":0,
			"byteLength":72,
			"byteOffset":44520,
			"target":34963
		},
		{
			"buffer":0,
			"byteLength":288,
			"byteOffset":44592,
			"target":34962
		},
		{
			"buffer":0,
			"byteLength":288,
			"byteOffset":44880,
			"target":34962
		},
		{
			"buffer":0,
			"byteLength":192,
			"byteOffset":45168,
			"target":34962
		},
		{
			"buffer":0,
			"byteLength":288,
			"byteOffset":45360,
			"target":34962
		},
		{
			"buffer":0,
			"byteLength":288,
			"byteOffset":45648,
			"target":34962
		},
		{
			"buffer":0,
			"byteLength":192,
			"byteOffset":45936,
			"target":34962
		},
		{
			"buffer":0,
			"byteLength":288,
			"byteOffset":46128,
			"target":34962
		},
		{
			"buffer":0,
			"byteLength":288,
			"byteOffset":46416,
			"target":34962
		},
		{
			"buffer":0,
			"byteLength":192,
			"byteOffset":46704,
			"target":34962
		}
	],
	"buffers":[
		{
			"byteLength":46896,
			"uri":"gate.bin"
		}
	]
}
